<svg width="13" height="13" viewBox="0 0 13 13" fill="none" xmlns="http://www.w3.org/2000/svg">
<path d="M10.5583 12.0168V9.1001M10.5583 3.26676V0.350098M12.0166 1.80843H9.09993M12.0166 10.5584H9.09993M5.59993 0.933431L6.61155 3.5636C6.77605 3.99132 6.8583 4.20518 6.98623 4.38507C7.09957 4.5445 7.23887 4.68379 7.3983 4.79716C7.57819 4.92507 7.79205 5.00732 8.21977 5.17181L10.8499 6.18343L8.21977 7.19505C7.79205 7.35955 7.57819 7.4418 7.3983 7.56972C7.23887 7.68306 7.09957 7.82236 6.98623 7.98179C6.8583 8.16169 6.77605 8.37554 6.61155 8.80324L5.59993 11.4334L4.58832 8.80324C4.42382 8.37554 4.34157 8.16169 4.21364 7.98179C4.1003 7.82236 3.961 7.68306 3.80158 7.56972C3.62168 7.4418 3.40783 7.35955 2.98013 7.19505L0.349934 6.18343L2.98013 5.17181C3.40783 5.00732 3.62168 4.92506 3.80158 4.79716C3.961 4.68379 4.1003 4.5445 4.21364 4.38507C4.34157 4.20518 4.42382 3.99132 4.58832 3.5636L5.59993 0.933431Z" stroke="url(#paint0_linear_62_16)" stroke-width="0.7" stroke-linecap="round" stroke-linejoin="round"/>
<defs>
<linearGradient id="paint0_linear_62_16" x1="6.18327" y1="0.350098" x2="6.18327" y2="12.0168" gradientUnits="userSpaceOnUse">
<stop stop-color="#258BF1"/>
<stop offset="0.298077" stop-color="#0FBC5F"/>
<stop offset="0.663462" stop-color="#1B0FBC"/>
<stop offset="1" stop-color="#0071CE"/>
</linearGradient>
</defs>
</svg>
