<svg width="39" height="39" viewBox="0 0 39 39" fill="none" xmlns="http://www.w3.org/2000/svg">
<path d="M39 19.5C39 8.73054 30.2695 0 19.5 0C8.73054 0 0 8.73054 0 19.5C0 28.6447 6.29616 36.3184 14.7896 38.4259V25.4592H10.7687V19.5H14.7896V16.9322C14.7896 10.2952 17.7934 7.2189 24.3095 7.2189C25.545 7.2189 27.6767 7.46148 28.5488 7.70328V13.1048C28.0886 13.0564 27.2891 13.0322 26.2961 13.0322C23.0989 13.0322 21.8634 14.2436 21.8634 17.3924V19.5H28.2329L27.1385 25.4592H21.8634V38.8573C31.519 37.6912 39.0008 29.47 39.0008 19.5H39Z" fill="#0866FF"/>
<path d="M27.1379 25.4591L28.2323 19.4999H21.8628V17.3923C21.8628 14.2434 23.0983 13.0321 26.2955 13.0321C27.2885 13.0321 28.088 13.0563 28.5482 13.1046V7.70313C27.6761 7.46055 25.5444 7.21875 24.3089 7.21875C17.7927 7.21875 14.789 10.2951 14.789 16.9321V19.4999H10.7681V25.4591H14.789V38.4258C16.2975 38.8002 17.8754 38.9999 19.4994 38.9999C20.2989 38.9999 21.0875 38.9507 21.862 38.8571V25.4591H27.1371H27.1379Z" fill="white"/>
</svg>
