<svg width="39" height="39" viewBox="0 0 39 39" fill="none" xmlns="http://www.w3.org/2000/svg">
<path fill-rule="evenodd" clip-rule="evenodd" d="M19.5161 0C8.72422 0 0 8.78853 0 19.6611C0 28.3522 5.58991 35.709 13.3446 38.3128C14.3141 38.5085 14.6693 37.8898 14.6693 37.3692C14.6693 36.9134 14.6373 35.3511 14.6373 33.7232C9.20838 34.8953 8.07786 31.3795 8.07786 31.3795C7.2054 29.1008 5.91268 28.5152 5.91268 28.5152C4.1358 27.3108 6.04212 27.3108 6.04212 27.3108C8.01314 27.441 9.0474 29.3289 9.0474 29.3289C10.7919 32.3234 13.6031 31.4773 14.734 30.9564C14.8954 29.6869 15.4127 28.808 15.962 28.3198C11.632 27.864 7.07637 26.1714 7.07637 18.6193C7.07637 16.4709 7.85136 14.7132 9.07935 13.3462C8.88561 12.858 8.20689 10.8395 9.2735 8.13778C9.2735 8.13778 10.9213 7.61686 14.6369 10.1559C16.2277 9.72557 17.8682 9.50664 19.5161 9.5048C21.164 9.5048 22.8438 9.7329 24.395 10.1559C28.1109 7.61686 29.7588 8.13778 29.7588 8.13778C30.8254 10.8395 30.1463 12.858 29.9525 13.3462C31.2129 14.7132 31.9559 16.4709 31.9559 18.6193C31.9559 26.1714 27.4002 27.8313 23.0379 28.3198C23.749 28.9382 24.3626 30.1099 24.3626 31.9655C24.3626 34.602 24.3307 36.7181 24.3307 37.3688C24.3307 37.8898 24.6862 38.5085 25.6553 38.3132C33.41 35.7086 38.9999 28.3522 38.9999 19.6611C39.0319 8.78853 30.2757 0 19.5161 0Z" fill="#D3D5D8"/>
</svg>
