<svg width="39" height="39" viewBox="0 0 39 39" fill="none" xmlns="http://www.w3.org/2000/svg">
<path d="M36.121 0H2.87896C2.11541 0 1.38314 0.303318 0.843228 0.843228C0.303318 1.38314 0 2.11541 0 2.87896V36.121C0 36.8846 0.303318 37.6169 0.843228 38.1568C1.38314 38.6967 2.11541 39 2.87896 39H36.121C36.8846 39 37.6169 38.6967 38.1568 38.1568C38.6967 37.6169 39 36.8846 39 36.121V2.87896C39 2.11541 38.6967 1.38314 38.1568 0.843228C37.6169 0.303318 36.8846 0 36.121 0ZM11.6242 33.2231H5.76063V14.5979H11.6242V33.2231ZM8.68833 12.0169C8.02322 12.0131 7.37411 11.8124 6.82294 11.4401C6.27177 11.0678 5.84324 10.5406 5.59143 9.92499C5.33961 9.30938 5.2758 8.63296 5.40805 7.98111C5.5403 7.32927 5.86268 6.7312 6.3345 6.26239C6.80633 5.79359 7.40645 5.47506 8.05913 5.347C8.71182 5.21894 9.38781 5.28709 10.0018 5.54285C10.6158 5.79861 11.1403 6.23052 11.509 6.78407C11.8778 7.33762 12.0743 7.988 12.0738 8.65313C12.08 9.09843 11.9966 9.54044 11.8284 9.95281C11.6602 10.3652 11.4107 10.7395 11.0948 11.0534C10.7789 11.3673 10.403 11.6143 9.98956 11.7799C9.57612 11.9454 9.13359 12.026 8.68833 12.0169ZM33.2367 33.2394H27.3758V23.0642C27.3758 20.0633 26.1002 19.1371 24.4535 19.1371C22.7148 19.1371 21.0085 20.4479 21.0085 23.14V33.2394H15.145V14.6115H20.7838V17.1925H20.8596C21.4256 16.0469 23.4081 14.0888 26.4333 14.0888C29.705 14.0888 33.2394 16.0306 33.2394 21.7181L33.2367 33.2394Z" fill="#0A66C2"/>
</svg>
