<svg width="39" height="39" viewBox="0 0 39 39" fill="none" xmlns="http://www.w3.org/2000/svg">
<path d="M0 39L2.74137 28.9851C1.04975 26.0536 0.160875 22.7305 0.1625 19.3229C0.167375 8.66937 8.83673 0 19.4886 0C24.6577 0.001625 29.5099 2.015 33.1597 5.668C36.8078 9.321 38.8163 14.1765 38.8147 19.3408C38.8098 29.9959 30.1404 38.6653 19.4886 38.6653C16.2548 38.6636 13.0682 37.8528 10.2456 36.3123L0 39ZM10.7201 32.8136C13.4436 34.4305 16.0436 35.399 19.4821 35.4006C28.3351 35.4006 35.5468 28.1954 35.5517 19.3375C35.5549 10.4618 28.3773 3.26625 19.4951 3.263C10.6356 3.263 3.42874 10.4683 3.42549 19.3245C3.42387 22.9401 4.48337 25.6474 6.26274 28.4797L4.63936 34.4077L10.7201 32.8136ZM29.2239 23.9346C29.1037 23.7331 28.7819 23.6129 28.2977 23.3708C27.8151 23.1286 25.4409 21.9603 24.9973 21.7994C24.5553 21.6385 24.2336 21.5573 23.9102 22.0415C23.5884 22.5241 22.6622 23.6129 22.3811 23.9346C22.0999 24.2564 21.8172 24.297 21.3346 24.0549C20.852 23.8127 19.2952 23.3041 17.4508 21.658C16.016 20.3775 15.0458 18.7964 14.7647 18.3121C14.4836 17.8295 14.7355 17.5679 14.976 17.3274C15.1937 17.1112 15.4586 16.7635 15.7007 16.4808C15.9461 16.2013 16.0257 15.9998 16.1882 15.6764C16.3491 15.3546 16.2695 15.0719 16.1476 14.8298C16.0257 14.5893 15.0605 12.2119 14.6591 11.245C14.2658 10.3041 13.8677 10.4309 13.572 10.4163L12.6457 10.4C12.324 10.4 11.8007 10.5202 11.3587 11.0045C10.9167 11.4887 9.66873 12.6555 9.66873 15.0329C9.66873 17.4103 11.3993 19.7064 11.6398 20.0281C11.882 20.3499 15.0442 25.2281 19.8883 27.3195C21.0405 27.8167 21.9407 28.1141 22.6411 28.3368C23.7981 28.704 24.8511 28.652 25.6831 28.5285C26.6109 28.3904 28.5398 27.3601 28.9428 26.2324C29.3458 25.103 29.3458 24.1361 29.2239 23.9346Z" fill="#25D366"/>
</svg>
